<svg width="91" height="41" viewBox="0 0 91 41" fill="none" xmlns="http://www.w3.org/2000/svg">
<path d="M13.3674 15.1835V10.2904H13.8046C15.3851 10.2904 16.4613 11.1144 16.4613 13.9224C16.4613 14.2755 16.4445 14.595 16.4108 14.8976C18.1427 14.7463 19.9251 14.595 21.741 14.4773C21.8587 14.141 21.926 13.7879 21.926 13.4348C21.926 11.5683 20.6313 9.61786 15.3851 10.2064L15.402 10.0382C19.4879 9.43291 21.1021 7.98686 21.1021 5.91868C21.1021 5.7169 21.0852 5.53194 21.0516 5.34698C19.3197 5.58239 17.6215 5.85142 15.9736 6.13727C15.9736 6.22134 15.9736 6.32222 15.9736 6.4063C15.9736 8.67625 15.6037 9.87008 13.586 9.87008H13.3338V6.60807C11.5851 6.94436 9.86999 7.31428 8.22217 7.70101V15.772C9.90362 15.5534 11.6187 15.3684 13.3674 15.1835Z" fill="#111111"/>
<path d="M13.7876 17.7225H13.3673V15.7384C11.6186 15.9234 9.90348 16.1084 8.25566 16.3101V16.4951L7.2468 17.9579V18.0925H14.1407C18.0753 18.0925 20.5471 16.68 21.5055 15.0322C19.74 15.1499 18.0249 15.3013 16.3434 15.4526C16.024 16.9659 15.1832 17.6721 13.7876 17.7225Z" fill="#111111"/>
<path d="M13.3673 2.89217H13.7204C15.6372 2.89217 15.9567 4.13644 15.9903 5.61611C17.6045 5.33027 19.2523 5.07805 20.9338 4.84265C20.3621 3.43023 18.4957 2.50543 14.4266 2.50543H7.2468V2.63995L8.25566 4.10281V7.19667C9.90348 6.80994 11.6186 6.44002 13.3673 6.10373V2.89217Z" fill="#111111"/>
<path d="M26.7519 11.8037H28.9042C29.9971 11.8037 33.4273 10.2735 33.4273 9.58415C33.1919 7.28056 31.6954 5.39734 28.6856 5.39734C27.3236 5.39734 22.0607 6.49028 22.0607 12.0559C22.0607 12.9134 22.212 13.6869 22.481 14.4099C24.5324 14.2754 26.6174 14.1577 28.7528 14.0568C27.9289 13.4851 27.2563 12.678 26.7519 11.8037ZM25.6422 7.96996C25.6422 7.06197 25.8944 6.47347 26.4324 6.47347C27.6599 6.47347 28.6519 9.01245 28.7192 11.4001H26.5501C25.9448 10.1895 25.6422 8.92838 25.6422 7.96996Z" fill="#111111"/>
<path d="M31.3758 14.8809C30.7704 14.8809 30.2156 14.7632 29.6943 14.5446C27.3067 14.6455 24.9694 14.78 22.6995 14.9313C23.7756 17.134 26.1128 18.4456 28.9209 18.4456C29.7279 18.4456 31.5607 16.7641 33.6289 14.3765C33.4944 14.3765 33.3599 14.3933 33.2254 14.3933C32.4351 14.78 31.897 14.8809 31.3758 14.8809Z" fill="#111111"/>
<path d="M38.8414 0.0671997H38.7069L32.9227 1.89998V2.03449L34.167 2.63982V3.53098C35.7139 3.44691 37.2609 3.36284 38.8414 3.3124V0.0671997Z" fill="#111111"/>
<path d="M38.8414 13.7209V9.44999C39.1441 8.94556 39.5813 8.57564 40.2034 8.57564C40.7751 8.57564 41.2123 8.82786 41.2123 9.81991V13.6872C42.6247 13.6704 44.0539 13.6536 45.4831 13.6536C45.6177 13.6536 45.7522 13.6536 45.8699 13.6536V9.50044C45.8699 7.44907 45.0628 5.41452 42.3052 5.41452C41.5149 5.41452 40.3715 6.65879 38.8078 8.79423V3.85077C37.2272 3.90121 35.6803 3.98529 34.1334 4.06936V13.8386C35.7139 13.7881 37.2609 13.7545 38.8414 13.7209Z" fill="#111111"/>
<path d="M41.2289 14.2246V16.999L40.3714 17.9406V18.0752H46.7441V17.9406L45.8865 16.999V14.2078C45.752 14.2078 45.6175 14.2078 45.4998 14.2078C44.0538 14.2078 42.6414 14.2078 41.2289 14.2246Z" fill="#111111"/>
<path d="M34.1671 17.0329L33.3432 17.9577V18.0922H39.7159V17.9577L38.8415 16.9825V14.2585C37.261 14.2922 35.714 14.3258 34.1671 14.3762V17.0329Z" fill="#111111"/>
<path d="M52.5452 5.75073H47.0301V5.88525L47.854 6.6419V13.6535C49.4346 13.6704 50.9983 13.6872 52.5452 13.704V5.75073Z" fill="#111111"/>
<path d="M47.854 17.0163L46.9965 17.9579V18.0924H53.3692V17.9579L52.5453 17.0331V14.2755C50.9983 14.2419 49.4346 14.2251 47.854 14.2251V17.0163Z" fill="#111111"/>
<path d="M50.309 4.85954C51.3011 4.85954 51.9904 4.50644 52.3604 3.86749C50.9648 3.81705 49.5523 3.78342 48.1399 3.7666C48.493 4.47281 49.2329 4.85954 50.309 4.85954Z" fill="#111111"/>
<path d="M52.646 2.63983C52.646 1.26104 51.8221 0.437134 50.3088 0.437134C48.7619 0.437134 47.8875 1.24423 47.8875 2.63983C47.8875 2.84161 47.9043 3.04338 47.9548 3.22834C49.5017 3.24515 51.0486 3.27878 52.5619 3.34604C52.6124 3.11064 52.646 2.89205 52.646 2.63983Z" fill="#111111"/>
<path d="M59.6244 9.1138C59.9102 8.79432 60.2633 8.57574 60.7341 8.57574C61.3058 8.57574 61.743 8.82795 61.743 9.82001V14.0236C63.3236 14.0909 64.8873 14.175 66.4174 14.2758V9.50053C66.4174 7.44916 65.6103 5.41461 62.8528 5.41461C62.0625 5.41461 60.8855 6.69251 59.2881 8.8784H59.2376C59.5571 6.22171 58.6323 5.43143 57.3712 5.43143C55.7907 5.43143 54.8491 7.11287 53.3694 9.33239L53.4703 9.45009L55.0004 8.71025V13.7882C56.5641 13.8219 58.0943 13.8723 59.6244 13.9396V9.1138Z" fill="#111111"/>
<path d="M61.7429 16.9827H61.726L60.8517 17.9579V18.0924H67.2244V17.9579L66.4173 17.0499V14.8304C64.8872 14.7295 63.3234 14.6454 61.7429 14.5782V16.9827Z" fill="#111111"/>
<path d="M55.0003 16.9824L54.126 17.9577V18.0922H60.4987V17.9577L59.6243 16.9824V14.4771C58.0942 14.4098 56.5641 14.3594 55.0003 14.3257V16.9824Z" fill="#111111"/>
<path d="M79.0113 0L78.1369 0.302661L73.0757 1.90004V2.03455L74.3536 2.63987V5.49834C75.951 5.76737 77.498 6.05322 79.0281 6.37269V0H79.0113Z" fill="#111111"/>
<path d="M73.4121 15.5363C73.1599 15.5363 72.9581 15.4522 72.7731 15.2841C71.058 15.1327 69.3093 15.015 67.5102 14.8973C68.0146 16.7469 69.2253 18.1425 71.5625 18.462C71.8651 18.5125 72.8572 17.2346 74.3369 15.5531H74.69C74.5555 17.7894 75.4298 18.4956 76.6068 18.4956C77.8343 18.4956 78.675 17.47 79.7007 15.9567C77.8511 15.7549 75.9342 15.5531 73.967 15.385C73.7484 15.5027 73.5298 15.5363 73.4121 15.5363Z" fill="#111111"/>
<path d="M67.2411 12.6279C67.2411 13.2332 67.2915 13.8049 67.3924 14.3429C69.0907 14.4438 70.7553 14.5783 72.3863 14.7129C71.9828 13.7712 71.8651 12.1066 71.8651 9.92072C71.8651 6.94456 72.3359 6.23835 73.0757 6.23835C73.6474 6.23835 74.3536 6.8773 74.3536 9.09681V14.8642C76.3041 15.0323 78.2041 15.2341 80.0537 15.4359C80.2387 15.1668 80.4236 14.881 80.6254 14.5783L80.5414 14.4606L79.0449 15.2005V6.8773C77.0271 6.47376 74.9253 6.08702 72.7731 5.75073C70.8394 6.01976 67.2411 7.34811 67.2411 12.6279Z" fill="#111111"/>
<path d="M8.15493 36.927C7.73456 37.1793 7.34783 37.297 6.99473 37.297C6.23807 37.297 5.70001 36.6748 5.70001 35.4306L5.73364 30.5039C4.16989 30.2853 2.6734 30.0499 1.22736 29.8145L1.31143 36.6244C1.31143 36.7757 1.32824 36.8934 1.32824 37.0279C3.12739 37.5828 5.02743 38.1041 6.99473 38.5917C7.38146 38.1545 7.78501 37.6333 8.239 37.0279L8.15493 36.927Z" fill="#111111"/>
<path d="M5.75056 28.7047C6.42313 28.8224 7.14616 28.8728 8.15503 28.8728V27.8303H5.75056V23.6435H5.58241L1.76552 27.8303H0V27.9648L1.22746 28.8392V29.2763C2.6735 29.5117 4.18681 29.7472 5.75056 29.9657V28.7047Z" fill="#111111"/>
<path d="M4.27091 40.5421C4.89304 40.5421 5.63288 40.0713 6.62493 39.0288C4.80897 38.5748 3.04345 38.0872 1.362 37.5659C1.5974 39.6341 2.55583 40.5421 4.27091 40.5421Z" fill="#111111"/>
<path d="M14.326 40.0377L13.4516 39.0625V31.5296C13.4684 31.496 13.5021 31.4792 13.5189 31.4455C11.9047 31.2774 10.3241 31.1092 8.79401 30.9075V39.0289C10.5595 39.4324 12.3755 39.8191 14.2587 40.1554H14.3428V40.0377H14.326Z" fill="#111111"/>
<path d="M14.8136 30.6555C15.1835 30.6555 15.503 30.7564 15.6711 31.1095C17.2517 31.2608 18.8491 31.3953 20.4969 31.513C20.4801 29.4785 19.6562 27.4944 16.9322 27.4944C16.1419 27.4944 14.9986 28.7386 13.4348 30.8741V22.1642H13.3003L7.51611 23.997V24.1315L8.76039 24.7368V30.3865C10.4418 30.5882 12.1737 30.79 13.9392 30.9582C14.2083 30.7564 14.4773 30.6555 14.8136 30.6555Z" fill="#111111"/>
<path d="M7.95328 40.0377V40.1722H11.6188C10.5427 39.9537 9.4834 39.7183 8.45771 39.4828L7.95328 40.0377Z" fill="#111111"/>
<path d="M15.8393 31.8996V39.0794L14.9817 40.021V40.1556H21.3544V40.021L20.4969 39.0794V32.051C18.8995 31.9333 17.3357 31.7988 15.8056 31.6642C15.8224 31.7315 15.8393 31.8156 15.8393 31.8996Z" fill="#111111"/>
<path d="M24.8517 30.0501C24.8517 29.1421 25.104 28.5536 25.642 28.5536C26.6004 28.5536 27.4244 30.1341 27.7606 31.9669C29.2403 32.051 30.7536 32.1182 32.2669 32.1687C32.5023 31.9837 32.6368 31.8156 32.6368 31.6811C32.4014 29.3775 30.905 27.4943 27.8952 27.4943C26.7686 27.4943 23.0021 28.2341 21.7074 31.597C22.834 31.6811 23.9606 31.7483 25.1208 31.8156C24.9358 31.1766 24.8517 30.5545 24.8517 30.0501Z" fill="#111111"/>
<path d="M27.9123 33.4634H25.7432C25.5583 33.0935 25.4237 32.7404 25.2892 32.3705C24.0113 32.3032 22.7671 32.2192 21.5228 32.1183C21.3546 32.7068 21.2538 33.3794 21.2538 34.136C21.2538 38.037 24.2299 40.5423 28.1141 40.5423C28.9212 40.5423 30.7539 38.8609 32.8221 36.4732L32.7044 36.3555C31.7292 36.8432 31.1407 36.9609 30.5522 36.9609C28.4335 36.9609 26.8698 35.5484 25.9282 33.8838H28.0804C28.753 33.8838 30.3504 33.2953 31.4601 32.6732C30.2327 32.6227 29.022 32.5723 27.8114 32.505C27.8787 32.8245 27.9123 33.144 27.9123 33.4634Z" fill="#111111"/>
<path d="M38.2025 40.1722H43.3814V40.0545C41.3468 38.2217 39.9176 35.8845 39.2114 32.8915C38.8751 32.8915 38.5388 32.8747 38.2025 32.8747V40.1722Z" fill="#111111"/>
<path d="M47.501 38.5748L46.4921 40.0377V40.1722H52.5958V32.8747C50.9143 32.9083 49.216 32.9251 47.5178 32.942V38.5748H47.501Z" fill="#111111"/>
<path d="M38.7069 28.4525V28.4357H38.8246L40.7751 32.3703C42.3389 32.3871 43.9026 32.4039 45.5 32.4039C45.6345 32.4039 45.769 32.4039 45.9035 32.4039L47.3496 28.8056H47.4841V32.4039C49.1992 32.3871 50.8974 32.3703 52.5621 32.3366V26.1657L53.5709 24.7029V24.5684H48.4593L45.7354 31.58H45.6345L42.4061 24.5347L36.7733 24.5852V24.7197L38.2025 27.5613V32.3366C38.4883 32.3366 38.791 32.3535 39.0768 32.3535C38.8414 31.1596 38.7069 29.8649 38.7069 28.4525Z" fill="#111111"/>
<path d="M41.0441 32.9085L43.4485 37.7847H43.7344L45.6849 32.9421C45.6176 32.9421 45.5672 32.9421 45.4999 32.9421C44.0034 32.9421 42.5237 32.9253 41.0441 32.9085Z" fill="#111111"/>
<path d="M53.9408 33.699L54.0081 33.8335L58.2117 32.7238C56.9506 32.7742 55.6727 32.8078 54.3948 32.8415C54.2435 33.1105 54.0921 33.3963 53.9408 33.699Z" fill="#111111"/>
<path d="M65.2065 37.1965V37.0956L65.4419 33.4132C65.4587 33.0601 65.4924 32.707 65.5092 32.3707C63.9622 32.4548 62.3817 32.5389 60.7675 32.6061V32.6229L58.0099 33.7495C56.1603 34.5062 54.1258 35.6159 54.1258 37.8691C54.1258 39.5337 55.3028 40.4585 56.8833 40.4585C59.0356 40.4585 60.1622 38.7266 60.7843 37.1124H60.9188C60.6498 39.7018 61.5578 40.4585 62.8189 40.4585C64.3322 40.4585 65.257 38.8947 66.6357 36.8266L66.6189 36.4903L65.2065 37.1965ZM60.717 36.2381C60.3976 37.0452 59.8427 37.2974 59.4391 37.2974C59.1197 37.2974 58.5143 37.0115 58.5143 36.1035C58.5143 35.1956 59.086 34.3212 60.7507 33.161L60.717 36.2381Z" fill="#111111"/>
<path d="M59.0021 28.8227C59.8596 28.7386 60.6331 29.9492 60.734 32.0847C62.3482 32.0174 63.9455 31.9333 65.5093 31.8493C65.6102 29.1926 65.2234 27.4271 61.9278 27.4271C61.6924 27.4271 57.6905 27.4271 54.6976 32.3033C56.0259 32.2696 57.3374 32.236 58.649 32.1856C57.8755 29.697 58.2791 28.9067 59.0021 28.8227Z" fill="#111111"/>
<path d="M69.4943 35.1784L72.7227 37.2802C74.4714 38.4068 74.7741 38.7431 74.7741 39.1298C74.7741 39.4997 74.5387 39.5838 74.2865 39.5838C72.4201 39.5838 68.7209 36.8599 66.5182 33.3456H66.3837L66.6023 36.4899L66.7031 36.4395L66.804 36.5572C66.7368 36.6581 66.6863 36.7422 66.6191 36.8262L66.8377 40.0882C68.7041 39.7183 69.6289 40.4582 72.0165 40.4582C76.2706 40.4582 77.3803 38.0033 77.3803 36.4059C77.3803 34.5731 75.9679 33.5642 74.2529 32.3872L73.3953 31.7987C71.3271 31.9837 69.1917 32.135 67.0058 32.2695C67.3253 33.3625 68.1156 34.2872 69.4943 35.1784Z" fill="#111111"/>
<path d="M76.6236 33.3961H76.7581V31.5129C76.2368 31.5633 75.7156 31.6138 75.1943 31.6642C75.682 32.1686 76.1528 32.7403 76.6236 33.3961Z" fill="#111111"/>
<path d="M70.789 29.9993C69.881 29.3772 69.5615 29.0073 69.5615 28.6541C69.5615 28.2842 69.8138 28.2674 70.0996 28.2674C70.8058 28.2674 72.6554 29.0409 74.7236 31.1595C75.413 31.0922 76.0856 31.0418 76.7581 30.9745L76.775 27.2922H76.6404L75.3625 28.2338C74.4209 27.763 73.2439 27.4771 71.8988 27.4771C68.9394 27.4771 66.9217 29.0409 66.9217 31.4285C66.9217 31.5462 66.9385 31.6471 66.9385 31.7648C68.9058 31.6471 70.8226 31.4958 72.7058 31.3445L70.789 29.9993Z" fill="#111111"/>
<path d="M66.7198 36.4565L66.619 36.507L66.6358 36.8433C66.703 36.7592 66.7535 36.6751 66.8207 36.5742L66.7198 36.4565Z" fill="#111111"/>
<path d="M83.9545 40.1725V40.0379L83.282 39.2981C82.0209 39.6008 80.7094 39.9034 79.381 40.1725H83.9545Z" fill="#111111"/>
<path d="M83.585 33.9509L88.4108 30.0331C87.3346 30.2013 86.2417 30.3694 85.0983 30.5208C84.9134 31.6473 84.3249 32.9252 83.0638 33.9173V30.7898C81.5505 30.9748 79.9867 31.1597 78.3893 31.3279V39.0962L77.5822 39.9873C79.4655 39.6174 81.2982 39.2307 83.0638 38.8103V34.3545L83.3832 34.0686L85.2328 38.2722C86.7461 37.8687 88.2258 37.4651 89.6382 37.028L87.6541 32.5721L83.585 33.9509Z" fill="#111111"/>
<path d="M83.0636 22.1473H82.9291L77.1449 23.9801V24.1146L78.3892 24.7199V30.8067C79.9865 30.6386 81.5503 30.4536 83.0636 30.2687V22.1473Z" fill="#111111"/>
<path d="M85.5859 39.0625L85.0479 40.0377V40.1722H90.9834V40.0377L89.84 37.4987C88.4276 37.9359 86.9479 38.3563 85.4346 38.7598L85.5859 39.0625Z" fill="#111111"/>
<path d="M91 27.8304H84.829V27.9649C85.0644 28.318 85.2326 29.0747 85.1653 29.9658C86.5609 29.764 87.9229 29.5623 89.2344 29.3605L90.9831 27.9481V27.8304H91Z" fill="#111111"/>
</svg>
