<svg width="35" height="28" viewBox="0 0 35 28" fill="none" xmlns="http://www.w3.org/2000/svg">
<path d="M27.5812 3.30445C27.5812 1.8591 26.5958 0.666687 25.4014 0.666687H17.8765V1.71456H25.4014C26.118 1.71456 26.7152 2.43724 26.7152 3.30445V24.6956C26.7152 25.5628 26.118 26.2855 25.4014 26.2855H17.8765V27.3334H25.4014C26.5958 27.3334 27.5812 26.1409 27.5812 24.6956V3.30445Z" fill="#FF1111" stroke="#FF1111" stroke-width="0.5"/>
<path d="M34.4166 3.30445C34.4166 1.8591 33.4312 0.666687 32.2368 0.666687H24.712V1.71456H32.2368C32.9535 1.71456 33.5507 2.43724 33.5507 3.30445V24.6956C33.5507 25.5628 32.9535 26.2855 32.2368 26.2855H24.712V27.3334H32.2368C33.4312 27.3334 34.4166 26.1409 34.4166 24.6956V3.30445Z" fill="#FF1111" stroke="#FF1111" stroke-width="0.5"/>
<path d="M3.26317 0.666687H18.3129C19.5073 0.666687 20.4927 1.8591 20.4927 3.30445V24.6956C20.4927 26.1409 19.5073 27.3334 18.3129 27.3334H3.26317C2.06875 27.3334 1.08335 26.1409 1.08335 24.6956V3.30445C1.08335 1.8591 2.06875 0.666687 3.26317 0.666687ZM1.94931 3.30445V24.6956C1.94931 25.5628 2.54652 26.2855 3.26317 26.2855H18.3129C19.0295 26.2855 19.6267 25.5628 19.6267 24.6956V3.30445C19.6267 2.43724 19.0295 1.71456 18.3129 1.71456H3.26317C2.54652 1.71456 1.94931 2.43724 1.94931 3.30445Z" fill="#FF1111" stroke="#FF1111" stroke-width="0.5"/>
</svg>
