<svg width="40" height="40" viewBox="0 0 40 40" fill="none" xmlns="http://www.w3.org/2000/svg">
<path d="M0.555556 20C0.555556 9.26113 9.26113 0.555556 20 0.555556C30.7389 0.555556 39.4444 9.26113 39.4444 20C39.4444 30.7389 30.7389 39.4444 20 39.4444C9.26113 39.4444 0.555556 30.7389 0.555556 20Z" fill="white"/>
<path d="M0.555556 20C0.555556 9.26113 9.26113 0.555556 20 0.555556C30.7389 0.555556 39.4444 9.26113 39.4444 20C39.4444 30.7389 30.7389 39.4444 20 39.4444C9.26113 39.4444 0.555556 30.7389 0.555556 20Z" fill="#FFF5F5" fill-opacity="0.6"/>
<g opacity="0.87">
<path d="M23.3333 12.2222L15.5555 19.9999L23.3333 27.7777" stroke="#FF1111" stroke-width="2.22222" stroke-linecap="round" stroke-linejoin="round"/>
</g>
<path d="M0.555556 20C0.555556 9.26113 9.26113 0.555556 20 0.555556C30.7389 0.555556 39.4444 9.26113 39.4444 20C39.4444 30.7389 30.7389 39.4444 20 39.4444C9.26113 39.4444 0.555556 30.7389 0.555556 20Z" stroke="#FFD5D5" stroke-width="1.11111"/>
</svg>
