<svg width="20" height="20" viewBox="0 0 20 20" fill="none" xmlns="http://www.w3.org/2000/svg">
<path d="M13.536 6.46596C14.0004 6.93027 14.3688 7.48152 14.6202 8.08824C14.8716 8.69495 15.0009 9.34524 15.0009 10.002C15.0009 10.6587 14.8716 11.309 14.6202 11.9157C14.3688 12.5224 14.0004 13.0736 13.536 13.538M16.364 3.63796C17.1997 4.47369 17.8627 5.46585 18.315 6.55778C18.7673 7.64972 19.0001 8.82005 19.0001 10.002C19.0001 11.1839 18.7673 12.3542 18.315 13.4461C17.8627 14.5381 17.1997 15.5302 16.364 16.366M3.586 13.002H2C1.73478 13.002 1.48043 12.8966 1.29289 12.7091C1.10536 12.5215 1 12.2672 1 12.002V8.00196C1 7.73674 1.10536 7.48239 1.29289 7.29485C1.48043 7.10732 1.73478 7.00196 2 7.00196H3.586L8.293 2.29496C8.923 1.66496 10 2.11096 10 3.00196V17.002C10 17.893 8.923 18.339 8.293 17.709L3.586 13.002Z" stroke="#666666" stroke-width="2" stroke-linecap="round" stroke-linejoin="round"/>
</svg>
