<svg width="91" height="41" viewBox="0 0 91 41" fill="none" xmlns="http://www.w3.org/2000/svg">
<path d="M13.3674 15.1834V10.2904H13.8046C15.3851 10.2904 16.4613 11.1143 16.4613 13.9223C16.4613 14.2754 16.4445 14.5949 16.4108 14.8976C18.1427 14.7462 19.9251 14.5949 21.741 14.4772C21.8587 14.1409 21.926 13.7878 21.926 13.4347C21.926 11.5683 20.6313 9.6178 15.3851 10.2063L15.402 10.0382C19.4879 9.43284 21.1021 7.9868 21.1021 5.91862C21.1021 5.71684 21.0852 5.53188 21.0516 5.34692C19.3197 5.58233 17.6215 5.85136 15.9736 6.1372C15.9736 6.22128 15.9736 6.32216 15.9736 6.40624C15.9736 8.67619 15.6037 9.87002 13.586 9.87002H13.3338V6.60801C11.5851 6.9443 9.86999 7.31422 8.22217 7.70095V15.7719C9.90362 15.5533 11.6187 15.3684 13.3674 15.1834Z" fill="white"/>
<path d="M13.7876 17.7225H13.3673V15.7384C11.6186 15.9234 9.90348 16.1084 8.25566 16.3101V16.4951L7.2468 17.9579V18.0925H14.1407C18.0753 18.0925 20.5471 16.68 21.5055 15.0322C19.74 15.1499 18.0249 15.3013 16.3434 15.4526C16.024 16.9659 15.1832 17.6721 13.7876 17.7225Z" fill="white"/>
<path d="M13.3673 2.8921H13.7204C15.6372 2.8921 15.9567 4.13638 15.9903 5.61605C17.6045 5.33021 19.2523 5.07799 20.9338 4.84258C20.3621 3.43017 18.4957 2.50537 14.4266 2.50537H7.2468V2.63989L8.25566 4.10275V7.19661C9.90348 6.80988 11.6186 6.43996 13.3673 6.10367V2.8921Z" fill="white"/>
<path d="M26.7519 11.8035H28.9042C29.9971 11.8035 33.4273 10.2734 33.4273 9.58402C33.1919 7.28044 31.6954 5.39722 28.6856 5.39722C27.3236 5.39722 22.0607 6.49016 22.0607 12.0558C22.0607 12.9133 22.212 13.6868 22.481 14.4098C24.5324 14.2753 26.6174 14.1576 28.7528 14.0567C27.9289 13.485 27.2563 12.6779 26.7519 11.8035ZM25.6422 7.96983C25.6422 7.06185 25.8944 6.47334 26.4324 6.47334C27.6599 6.47334 28.6519 9.01233 28.7192 11.4H26.5501C25.9448 10.1893 25.6422 8.92826 25.6422 7.96983Z" fill="white"/>
<path d="M31.3758 14.8809C30.7704 14.8809 30.2156 14.7632 29.6943 14.5446C27.3067 14.6455 24.9694 14.78 22.6995 14.9313C23.7756 17.134 26.1128 18.4456 28.9209 18.4456C29.7279 18.4456 31.5607 16.7641 33.6289 14.3765C33.4944 14.3765 33.3599 14.3933 33.2254 14.3933C32.4351 14.78 31.897 14.8809 31.3758 14.8809Z" fill="white"/>
<path d="M38.8414 0.0671387H38.7069L32.9227 1.89992V2.03443L34.167 2.63976V3.53092C35.7139 3.44685 37.2609 3.36278 38.8414 3.31233V0.0671387Z" fill="white"/>
<path d="M38.8414 13.7209V9.45005C39.1441 8.94562 39.5813 8.5757 40.2034 8.5757C40.7751 8.5757 41.2123 8.82792 41.2123 9.81997V13.6873C42.6247 13.6705 44.0539 13.6537 45.4831 13.6537C45.6177 13.6537 45.7522 13.6537 45.8699 13.6537V9.5005C45.8699 7.44913 45.0628 5.41458 42.3052 5.41458C41.5149 5.41458 40.3715 6.65885 38.8078 8.79429V3.85083C37.2272 3.90127 35.6803 3.98535 34.1334 4.06942V13.8386C35.7139 13.7882 37.2609 13.7546 38.8414 13.7209Z" fill="white"/>
<path d="M41.2289 14.2246V16.999L40.3714 17.9406V18.0751H46.7441V17.9406L45.8865 16.999V14.2078C45.752 14.2078 45.6175 14.2078 45.4998 14.2078C44.0538 14.2078 42.6414 14.2078 41.2289 14.2246Z" fill="white"/>
<path d="M34.1671 17.0329L33.3432 17.9577V18.0922H39.7159V17.9577L38.8415 16.9825V14.2585C37.261 14.2922 35.714 14.3258 34.1671 14.3762V17.0329Z" fill="white"/>
<path d="M52.5452 5.75073H47.0301V5.88525L47.854 6.6419V13.6535C49.4346 13.6704 50.9983 13.6872 52.5452 13.704V5.75073Z" fill="white"/>
<path d="M47.854 17.0163L46.9965 17.9579V18.0924H53.3692V17.9579L52.5453 17.0331V14.2755C50.9983 14.2419 49.4346 14.2251 47.854 14.2251V17.0163Z" fill="white"/>
<path d="M50.309 4.85954C51.3011 4.85954 51.9904 4.50644 52.3604 3.86749C50.9648 3.81705 49.5523 3.78342 48.1399 3.7666C48.493 4.47281 49.2329 4.85954 50.309 4.85954Z" fill="white"/>
<path d="M52.646 2.63995C52.646 1.26117 51.8221 0.437256 50.3088 0.437256C48.7619 0.437256 47.8875 1.24435 47.8875 2.63995C47.8875 2.84173 47.9043 3.0435 47.9548 3.22846C49.5017 3.24528 51.0486 3.2789 52.5619 3.34616C52.6124 3.11076 52.646 2.89217 52.646 2.63995Z" fill="white"/>
<path d="M59.6244 9.11374C59.9102 8.79426 60.2633 8.57567 60.7341 8.57567C61.3058 8.57567 61.743 8.82789 61.743 9.81995V14.0236C63.3236 14.0908 64.8873 14.1749 66.4174 14.2758V9.50047C66.4174 7.4491 65.6103 5.41455 62.8528 5.41455C62.0625 5.41455 60.8855 6.69245 59.2881 8.87833H59.2376C59.5571 6.22165 58.6323 5.43137 57.3712 5.43137C55.7907 5.43137 54.8491 7.11281 53.3694 9.33233L53.4703 9.45003L55.0004 8.71019V13.7882C56.5641 13.8218 58.0943 13.8722 59.6244 13.9395V9.11374Z" fill="white"/>
<path d="M61.7429 16.9826H61.726L60.8517 17.9578V18.0924H67.2244V17.9578L66.4173 17.0499V14.8303C64.8872 14.7295 63.3234 14.6454 61.7429 14.5781V16.9826Z" fill="white"/>
<path d="M55.0003 16.9824L54.126 17.9576V18.0921H60.4987V17.9576L59.6243 16.9824V14.477C58.0942 14.4098 56.5641 14.3593 55.0003 14.3257V16.9824Z" fill="white"/>
<path d="M79.0113 0L78.1369 0.302661L73.0757 1.90004V2.03455L74.3536 2.63987V5.49834C75.951 5.76737 77.498 6.05322 79.0281 6.37269V0H79.0113Z" fill="white"/>
<path d="M73.4121 15.5364C73.1599 15.5364 72.9581 15.4523 72.7731 15.2842C71.058 15.1329 69.3093 15.0152 67.5102 14.8975C68.0146 16.7471 69.2253 18.1427 71.5625 18.4621C71.8651 18.5126 72.8572 17.2347 74.3369 15.5532H74.69C74.5555 17.7896 75.4298 18.4958 76.6068 18.4958C77.8343 18.4958 78.675 17.4701 79.7007 15.9568C77.8511 15.755 75.9342 15.5532 73.967 15.3851C73.7484 15.5028 73.5298 15.5364 73.4121 15.5364Z" fill="white"/>
<path d="M67.2411 12.6279C67.2411 13.2332 67.2915 13.8049 67.3924 14.3429C69.0907 14.4438 70.7553 14.5783 72.3863 14.7129C71.9828 13.7712 71.8651 12.1066 71.8651 9.92072C71.8651 6.94456 72.3359 6.23835 73.0757 6.23835C73.6474 6.23835 74.3536 6.8773 74.3536 9.09681V14.8642C76.3041 15.0323 78.2041 15.2341 80.0537 15.4359C80.2387 15.1668 80.4236 14.881 80.6254 14.5783L80.5414 14.4606L79.0449 15.2005V6.8773C77.0271 6.47376 74.9253 6.08702 72.7731 5.75073C70.8394 6.01976 67.2411 7.34811 67.2411 12.6279Z" fill="white"/>
<path d="M8.15493 36.927C7.73456 37.1792 7.34783 37.2969 6.99473 37.2969C6.23807 37.2969 5.70001 36.6748 5.70001 35.4305L5.73364 30.5038C4.16989 30.2853 2.6734 30.0499 1.22736 29.8145L1.31143 36.6243C1.31143 36.7757 1.32824 36.8934 1.32824 37.0279C3.12739 37.5827 5.02743 38.104 6.99473 38.5916C7.38146 38.1544 7.78501 37.6332 8.239 37.0279L8.15493 36.927Z" fill="white"/>
<path d="M5.75056 28.7047C6.42313 28.8224 7.14616 28.8729 8.15503 28.8729V27.8304H5.75056V23.6436H5.58241L1.76552 27.8304H0V27.9649L1.22746 28.8392V29.2764C2.6735 29.5118 4.18681 29.7472 5.75056 29.9658V28.7047Z" fill="white"/>
<path d="M4.27091 40.5421C4.89304 40.5421 5.63288 40.0713 6.62493 39.0288C4.80897 38.5748 3.04345 38.0872 1.362 37.5659C1.5974 39.6341 2.55583 40.5421 4.27091 40.5421Z" fill="white"/>
<path d="M14.326 40.0377L13.4516 39.0625V31.5296C13.4684 31.496 13.5021 31.4792 13.5189 31.4455C11.9047 31.2774 10.3241 31.1092 8.79401 30.9075V39.0289C10.5595 39.4324 12.3755 39.8191 14.2587 40.1554H14.3428V40.0377H14.326Z" fill="white"/>
<path d="M14.8136 30.6554C15.1835 30.6554 15.503 30.7563 15.6711 31.1094C17.2517 31.2607 18.8491 31.3952 20.4969 31.5129C20.4801 29.4784 19.6562 27.4943 16.9322 27.4943C16.1419 27.4943 14.9986 28.7385 13.4348 30.874V22.1641H13.3003L7.51611 23.9968V24.1314L8.76039 24.7367V30.3863C10.4418 30.5881 12.1737 30.7899 13.9392 30.958C14.2083 30.7563 14.4773 30.6554 14.8136 30.6554Z" fill="white"/>
<path d="M7.95328 40.0378V40.1723H11.6188C10.5427 39.9537 9.4834 39.7183 8.45771 39.4829L7.95328 40.0378Z" fill="white"/>
<path d="M15.8393 31.8997V39.0795L14.9817 40.0211V40.1556H21.3544V40.0211L20.4969 39.0795V32.051C18.8995 31.9333 17.3357 31.7988 15.8056 31.6643C15.8224 31.7316 15.8393 31.8156 15.8393 31.8997Z" fill="white"/>
<path d="M24.8517 30.0502C24.8517 29.1422 25.104 28.5537 25.642 28.5537C26.6004 28.5537 27.4244 30.1343 27.7606 31.967C29.2403 32.0511 30.7536 32.1184 32.2669 32.1688C32.5023 31.9839 32.6368 31.8157 32.6368 31.6812C32.4014 29.3776 30.905 27.4944 27.8952 27.4944C26.7686 27.4944 23.0021 28.2342 21.7074 31.5971C22.834 31.6812 23.9606 31.7484 25.1208 31.8157C24.9358 31.1768 24.8517 30.5546 24.8517 30.0502Z" fill="white"/>
<path d="M27.9123 33.4636H25.7432C25.5583 33.0936 25.4237 32.7405 25.2892 32.3706C24.0113 32.3034 22.7671 32.2193 21.5228 32.1184C21.3546 32.7069 21.2538 33.3795 21.2538 34.1361C21.2538 38.0371 24.2299 40.5425 28.1141 40.5425C28.9212 40.5425 30.7539 38.861 32.8221 36.4734L32.7044 36.3557C31.7292 36.8433 31.1407 36.961 30.5522 36.961C28.4335 36.961 26.8698 35.5486 25.9282 33.8839H28.0804C28.753 33.8839 30.3504 33.2954 31.4601 32.6733C30.2327 32.6228 29.022 32.5724 27.8114 32.5051C27.8787 32.8246 27.9123 33.1441 27.9123 33.4636Z" fill="white"/>
<path d="M38.2025 40.1722H43.3814V40.0545C41.3468 38.2218 39.9176 35.8845 39.2114 32.8916C38.8751 32.8916 38.5388 32.8748 38.2025 32.8748V40.1722Z" fill="white"/>
<path d="M47.501 38.5749L46.4921 40.0377V40.1722H52.5958V32.8748C50.9143 32.9084 49.216 32.9252 47.5178 32.942V38.5749H47.501Z" fill="white"/>
<path d="M38.7069 28.4524V28.4356H38.8246L40.7751 32.3702C42.3389 32.387 43.9026 32.4038 45.5 32.4038C45.6345 32.4038 45.769 32.4038 45.9035 32.4038L47.3496 28.8055H47.4841V32.4038C49.1992 32.387 50.8974 32.3702 52.5621 32.3366V26.1657L53.5709 24.7028V24.5683H48.4593L45.7354 31.5799H45.6345L42.4061 24.5347L36.7733 24.5851V24.7196L38.2025 27.5613V32.3366C38.4883 32.3366 38.791 32.3534 39.0768 32.3534C38.8414 31.1596 38.7069 29.8649 38.7069 28.4524Z" fill="white"/>
<path d="M41.0441 32.9084L43.4485 37.7846H43.7344L45.6849 32.9421C45.6176 32.9421 45.5672 32.9421 45.4999 32.9421C44.0034 32.9421 42.5237 32.9253 41.0441 32.9084Z" fill="white"/>
<path d="M53.9408 33.6989L54.0081 33.8334L58.2117 32.7236C56.9506 32.7741 55.6727 32.8077 54.3948 32.8413C54.2435 33.1104 54.0921 33.3962 53.9408 33.6989Z" fill="white"/>
<path d="M65.2065 37.1964V37.0955L65.4419 33.4131C65.4587 33.06 65.4924 32.7069 65.5092 32.3706C63.9622 32.4547 62.3817 32.5388 60.7675 32.606V32.6228L58.0099 33.7494C56.1603 34.506 54.1258 35.6158 54.1258 37.8689C54.1258 39.5336 55.3028 40.4584 56.8833 40.4584C59.0356 40.4584 60.1622 38.7265 60.7843 37.1123H60.9188C60.6498 39.7017 61.5578 40.4584 62.8189 40.4584C64.3322 40.4584 65.257 38.8946 66.6357 36.8264L66.6189 36.4902L65.2065 37.1964ZM60.717 36.2379C60.3976 37.045 59.8427 37.2973 59.4391 37.2973C59.1197 37.2973 58.5143 37.0114 58.5143 36.1034C58.5143 35.1954 59.086 34.3211 60.7507 33.1609L60.717 36.2379Z" fill="white"/>
<path d="M59.0021 28.8226C59.8596 28.7385 60.6331 29.9492 60.734 32.0846C62.3482 32.0174 63.9455 31.9333 65.5093 31.8492C65.6102 29.1925 65.2234 27.427 61.9278 27.427C61.6924 27.427 57.6905 27.427 54.6976 32.3032C56.0259 32.2696 57.3374 32.2359 58.649 32.1855C57.8755 29.697 58.2791 28.9067 59.0021 28.8226Z" fill="white"/>
<path d="M69.4943 35.1783L72.7227 37.2801C74.4714 38.4067 74.7741 38.743 74.7741 39.1297C74.7741 39.4996 74.5387 39.5837 74.2865 39.5837C72.4201 39.5837 68.7209 36.8597 66.5182 33.3455H66.3837L66.6023 36.4898L66.7031 36.4394L66.804 36.5571C66.7368 36.658 66.6863 36.742 66.6191 36.8261L66.8377 40.0881C68.7041 39.7182 69.6289 40.458 72.0165 40.458C76.2706 40.458 77.3803 38.0031 77.3803 36.4058C77.3803 34.573 75.9679 33.5641 74.2529 32.3871L73.3953 31.7986C71.3271 31.9835 69.1917 32.1349 67.0058 32.2694C67.3253 33.3623 68.1156 34.2871 69.4943 35.1783Z" fill="white"/>
<path d="M76.6236 33.3962H76.7581V31.5129C76.2368 31.5634 75.7156 31.6138 75.1943 31.6643C75.682 32.1687 76.1528 32.7404 76.6236 33.3962Z" fill="white"/>
<path d="M70.789 29.9994C69.881 29.3772 69.5615 29.0073 69.5615 28.6542C69.5615 28.2843 69.8138 28.2675 70.0996 28.2675C70.8058 28.2675 72.6554 29.0409 74.7236 31.1596C75.413 31.0923 76.0856 31.0419 76.7581 30.9746L76.775 27.2922H76.6404L75.3625 28.2338C74.4209 27.763 73.2439 27.4772 71.8988 27.4772C68.9394 27.4772 66.9217 29.0409 66.9217 31.4286C66.9217 31.5463 66.9385 31.6472 66.9385 31.7649C68.9058 31.6472 70.8226 31.4959 72.7058 31.3445L70.789 29.9994Z" fill="white"/>
<path d="M66.7198 36.4565L66.619 36.507L66.6358 36.8433C66.703 36.7592 66.7535 36.6751 66.8207 36.5742L66.7198 36.4565Z" fill="white"/>
<path d="M83.9545 40.1725V40.0379L83.282 39.2981C82.0209 39.6008 80.7094 39.9034 79.381 40.1725H83.9545Z" fill="white"/>
<path d="M83.585 33.951L88.4108 30.0332C87.3346 30.2013 86.2417 30.3695 85.0983 30.5208C84.9134 31.6474 84.3249 32.9253 83.0638 33.9173V30.7899C81.5505 30.9748 79.9867 31.1598 78.3893 31.3279V39.0962L77.5822 39.9874C79.4655 39.6175 81.2982 39.2307 83.0638 38.8104V34.3545L83.3832 34.0687L85.2328 38.2723C86.7461 37.8688 88.2258 37.4652 89.6382 37.028L87.6541 32.5722L83.585 33.951Z" fill="white"/>
<path d="M83.0636 22.1472H82.9291L77.1449 23.98V24.1145L78.3892 24.7198V30.8067C79.9865 30.6385 81.5503 30.4536 83.0636 30.2686V22.1472Z" fill="white"/>
<path d="M85.5859 39.0625L85.0479 40.0378V40.1723H90.9834V40.0378L89.84 37.4988C88.4276 37.936 86.9479 38.3563 85.4346 38.7599L85.5859 39.0625Z" fill="white"/>
<path d="M91 27.8303H84.829V27.9648C85.0644 28.3179 85.2326 29.0746 85.1653 29.9658C86.5609 29.764 87.9229 29.5622 89.2344 29.3604L90.9831 27.948V27.8303H91Z" fill="white"/>
</svg>
